<?xml version="1.0" standalone="no"?>
<!DOCTYPE svg PUBLIC "-//W3C//DTD SVG 20010904//EN"
 "http://www.w3.org/TR/2001/REC-SVG-20010904/DTD/svg10.dtd">
<svg version="1.0" xmlns="http://www.w3.org/2000/svg"
 width="782.000000pt" height="782.000000pt" viewBox="0 0 782.000000 782.000000"
 preserveAspectRatio="xMidYMid meet">
<metadata>
Created by potrace 1.11, written by Peter Selinger 2001-2013
</metadata>
<g transform="translate(0.000000,782.000000) scale(0.100000,-0.100000)"
fill="#000000" stroke="none">
<path d="M700 3960 l0 -3060 3120 0 3120 0 0 3060 0 3060 -3120 0 -3120 0 0
-3060z m4170 1195 c20 -41 25 -65 25 -132 0 -71 -3 -84 -23 -105 -24 -26 -21
-38 11 -38 10 0 34 -15 52 -33 51 -51 60 -110 60 -394 0 -133 3 -239 6 -235 4
4 44 88 89 187 198 433 327 653 422 718 38 25 49 28 93 23 120 -14 244 -110
264 -207 15 -68 14 -82 -9 -158 -38 -129 -270 -1197 -270 -1244 0 -6 80 120
178 279 230 374 336 542 435 687 83 124 211 268 258 293 37 19 92 18 132 -2
73 -37 157 -142 157 -196 0 -13 -15 -46 -33 -73 -113 -169 -427 -1053 -537
-1511 -70 -290 -91 -554 -50 -621 37 -61 95 -57 163 12 62 62 126 161 206 318
60 117 89 183 188 425 31 75 61 96 93 67 44 -40 30 -80 -161 -470 -188 -386
-343 -532 -525 -495 -62 13 -107 46 -133 99 -110 219 -14 815 283 1765 36 115
68 225 72 245 l5 36 -20 -25 c-38 -47 -344 -535 -433 -690 -104 -181 -168
-311 -307 -620 -149 -332 -161 -354 -193 -358 -21 -3 -30 3 -42 27 -21 40 -20
53 9 168 32 131 63 311 134 788 91 607 103 707 99 821 -5 159 -45 194 -125
112 -76 -79 -222 -333 -308 -538 -21 -49 -245 -742 -245 -757 0 -1 17 -11 38
-22 38 -20 99 -77 91 -86 -3 -2 -27 2 -54 10 -92 28 -100 25 -130 -57 -52
-139 -148 -374 -200 -490 -168 -374 -318 -494 -555 -444 -273 58 -433 289
-379 548 51 242 313 452 654 522 39 8 102 17 140 20 181 16 173 14 184 49 48
150 132 543 156 736 22 173 17 435 -9 496 -23 55 -53 84 -93 91 -109 21 -249
-127 -393 -416 -34 -67 -90 -203 -90 -217 0 -2 -12 -3 -27 -3 -54 0 -146 78
-179 151 -22 49 -11 89 44 175 89 138 243 288 400 388 39 26 72 48 72 49 0 1
-66 -1 -147 -5 -269 -12 -847 19 -1068 57 -43 8 -81 12 -83 10 -9 -9 -165
-436 -245 -671 l-86 -252 172 -4 c95 -3 184 -10 198 -16 29 -12 49 -69 49
-142 0 -40 -1 -41 -27 -36 -29 6 -242 29 -370 41 l-72 7 -45 -144 c-60 -191
-129 -430 -171 -597 -105 -423 -129 -655 -73 -727 18 -22 27 -25 60 -21 53 7
125 56 200 136 69 73 231 306 322 465 56 98 79 125 104 126 52 1 -80 -284
-226 -489 -148 -208 -298 -321 -426 -321 -105 0 -183 50 -217 136 -27 71 -29
135 -9 308 31 261 62 432 156 860 31 136 53 250 50 253 -6 7 -186 -13 -306
-33 -52 -9 -149 -31 -215 -49 -66 -18 -122 -32 -123 -30 -8 7 97 77 178 119
119 62 338 126 475 138 l30 3 81 328 c45 181 106 407 135 503 28 96 50 177 47
179 -11 11 -365 35 -523 35 -631 0 -998 -81 -1203 -265 -127 -114 -169 -336
-93 -490 75 -153 245 -245 426 -232 286 21 560 241 677 544 17 43 35 84 40 91
20 24 118 15 186 -18 58 -27 62 -31 62 -63 0 -18 -18 -71 -41 -118 -35 -73
-55 -98 -153 -194 -125 -123 -212 -180 -372 -244 -149 -60 -282 -84 -424 -78
-408 18 -612 248 -534 600 27 123 76 211 168 303 190 189 446 277 920 314 266
21 672 5 1226 -47 206 -19 357 -27 605 -30 486 -7 703 20 859 106 39 22 80 39
91 38 13 -1 29 -19 45 -52z"/>
<path d="M4570 3234 c-260 -49 -536 -228 -670 -435 -41 -64 -80 -170 -80 -218
0 -73 70 -180 141 -216 38 -20 116 -18 165 4 102 46 233 206 332 406 72 143
188 444 180 464 -2 4 -32 2 -68 -5z"/>
</g>
</svg>
